<svg width="14" height="16" viewBox="0 0 14 16" fill="none" xmlns="http://www.w3.org/2000/svg">
<path fill-rule="evenodd" clip-rule="evenodd" d="M1.93333 2.66666C1.93333 2.44575 2.11242 2.26666 2.33333 2.26666H11.6667C11.8876 2.26666 12.0667 2.44575 12.0667 2.66666V14C12.0667 14.5891 11.5891 15.0667 11 15.0667H3C2.4109 15.0667 1.93333 14.5891 1.93333 14V2.66666ZM2.73333 3.06666V14C2.73333 14.1473 2.85273 14.2667 3 14.2667H11C11.1473 14.2667 11.2667 14.1473 11.2667 14V3.06666H2.73333Z" fill="#FF3434"/>
<path fill-rule="evenodd" clip-rule="evenodd" d="M0.599998 2.66666C0.599998 2.44575 0.779085 2.26666 0.999998 2.26666L13 2.26666C13.2209 2.26666 13.4 2.44575 13.4 2.66666C13.4 2.88758 13.2209 3.06666 13 3.06666L0.999998 3.06666C0.779085 3.06666 0.599998 2.88758 0.599998 2.66666Z" fill="#FF3434"/>
<path fill-rule="evenodd" clip-rule="evenodd" d="M4.33333 5.59998C4.55425 5.59998 4.73333 5.77906 4.73333 5.99998V12C4.73333 12.2209 4.55425 12.4 4.33333 12.4C4.11242 12.4 3.93333 12.2209 3.93333 12V5.99998C3.93333 5.77906 4.11242 5.59998 4.33333 5.59998Z" fill="#FF3434"/>
<path fill-rule="evenodd" clip-rule="evenodd" d="M7 5.59998C7.22091 5.59998 7.4 5.77906 7.4 5.99998V12C7.4 12.2209 7.22091 12.4 7 12.4C6.77908 12.4 6.6 12.2209 6.6 12V5.99998C6.6 5.77906 6.77908 5.59998 7 5.59998Z" fill="#FF3434"/>
<path fill-rule="evenodd" clip-rule="evenodd" d="M9.66666 5.59998C9.88758 5.59998 10.0667 5.77906 10.0667 5.99998V12C10.0667 12.2209 9.88758 12.4 9.66666 12.4C9.44575 12.4 9.26666 12.2209 9.26666 12V5.99998C9.26666 5.77906 9.44575 5.59998 9.66666 5.59998Z" fill="#FF3434"/>
<path fill-rule="evenodd" clip-rule="evenodd" d="M5.66667 1.73332C5.51939 1.73332 5.4 1.85271 5.4 1.99999V2.66665C5.4 2.88757 5.22091 3.06665 5 3.06665C4.77908 3.06665 4.6 2.88757 4.6 2.66665V1.99999C4.6 1.41088 5.07756 0.933319 5.66667 0.933319H8.33333C8.92244 0.933319 9.4 1.41088 9.4 1.99999V2.66665C9.4 2.88757 9.22091 3.06665 9 3.06665C8.77908 3.06665 8.6 2.88757 8.6 2.66665V1.99999C8.6 1.85271 8.48061 1.73332 8.33333 1.73332H5.66667Z" fill="#FF3434"/>
</svg>
