<svg width="214" height="117" viewBox="0 0 214 117" fill="none" xmlns="http://www.w3.org/2000/svg">
<circle cx="30" cy="18" r="17.5" fill="white" stroke="#138300"/>
<rect x="15.375" y="3.375" width="29.25" height="29.25" rx="14.625" fill="#138300"/>
<path d="M23 18.003H37" stroke="white" stroke-width="2.5" stroke-linecap="round"/>
<path d="M30.0051 25V11" stroke="white" stroke-width="2.5" stroke-linecap="round"/>
<g filter="url(#filter0_ddd_902_11960)">
<mask id="path-5-inside-1_902_11960" fill="white">
<path d="M12 44C12 42.3431 13.3431 41 15 41H199C200.657 41 202 42.3431 202 44V98C202 99.6569 200.657 101 199 101H15C13.3431 101 12 99.6569 12 98V44Z"/>
</mask>
<path d="M12 44C12 42.3431 13.3431 41 15 41H199C200.657 41 202 42.3431 202 44V98C202 99.6569 200.657 101 199 101H15C13.3431 101 12 99.6569 12 98V44Z" fill="white" shape-rendering="crispEdges"/>
<rect x="22" y="51" width="170" height="40" rx="3" fill="#F7F7F7"/>
<path d="M36.833 66.0469V76H35.5342V66.0469H36.833ZM40.0322 66.0469V67.127H32.3418V66.0469H40.0322ZM45.0394 74.7354V70.9277C45.0394 70.6361 44.9802 70.3831 44.8617 70.1689C44.7477 69.9502 44.5746 69.7816 44.3421 69.6631C44.1097 69.5446 43.8226 69.4854 43.4808 69.4854C43.1618 69.4854 42.8815 69.54 42.64 69.6494C42.403 69.7588 42.2162 69.9023 42.0795 70.0801C41.9473 70.2578 41.8812 70.4492 41.8812 70.6543H40.6166C40.6166 70.39 40.6849 70.1279 40.8216 69.8682C40.9584 69.6084 41.1543 69.3737 41.4095 69.1641C41.6693 68.9499 41.9792 68.7812 42.3392 68.6582C42.7038 68.5306 43.1094 68.4668 43.556 68.4668C44.0938 68.4668 44.5677 68.5579 44.9779 68.7402C45.3926 68.9225 45.7162 69.1982 45.9486 69.5674C46.1856 69.932 46.3041 70.39 46.3041 70.9414V74.3867C46.3041 74.6328 46.3246 74.8949 46.3656 75.1729C46.4112 75.4508 46.4772 75.6901 46.5638 75.8906V76H45.2445C45.1807 75.8542 45.1306 75.6605 45.0941 75.4189C45.0576 75.1729 45.0394 74.945 45.0394 74.7354ZM45.2582 71.5156L45.2718 72.4043H43.9935C43.6335 72.4043 43.3122 72.4339 43.0296 72.4932C42.7471 72.5479 42.5101 72.6322 42.3187 72.7461C42.1273 72.86 41.9815 73.0036 41.8812 73.1768C41.781 73.3454 41.7308 73.5436 41.7308 73.7715C41.7308 74.0039 41.7832 74.2158 41.888 74.4072C41.9929 74.5986 42.1501 74.7513 42.3597 74.8652C42.5739 74.9746 42.836 75.0293 43.1459 75.0293C43.5332 75.0293 43.875 74.9473 44.1712 74.7832C44.4675 74.6191 44.7022 74.4186 44.8754 74.1816C45.0531 73.9447 45.1488 73.7145 45.1625 73.4912L45.7025 74.0996C45.6706 74.291 45.584 74.5029 45.4427 74.7354C45.3015 74.9678 45.1123 75.1911 44.8754 75.4053C44.6429 75.6149 44.3649 75.7904 44.0414 75.9316C43.7224 76.0684 43.3623 76.1367 42.9613 76.1367C42.46 76.1367 42.0202 76.0387 41.642 75.8428C41.2683 75.6468 40.9766 75.3848 40.767 75.0566C40.5619 74.724 40.4593 74.3525 40.4593 73.9424C40.4593 73.5459 40.5368 73.1973 40.6918 72.8965C40.8467 72.5911 41.07 72.3382 41.3617 72.1377C41.6533 71.9326 42.0043 71.7777 42.4144 71.6729C42.8246 71.568 43.2826 71.5156 43.7884 71.5156H45.2582ZM42.3597 77.6816C42.3597 77.4766 42.4212 77.3034 42.5443 77.1621C42.6719 77.0208 42.8587 76.9502 43.1048 76.9502C43.3464 76.9502 43.531 77.0208 43.6586 77.1621C43.7907 77.3034 43.8568 77.4766 43.8568 77.6816C43.8568 77.8776 43.7907 78.0439 43.6586 78.1807C43.531 78.3219 43.3464 78.3926 43.1048 78.3926C42.8587 78.3926 42.6719 78.3219 42.5443 78.1807C42.4212 78.0439 42.3597 77.8776 42.3597 77.6816ZM48.0984 72.3838V72.2266C48.0984 71.6934 48.1758 71.1989 48.3308 70.7432C48.4857 70.2829 48.709 69.8841 49.0007 69.5469C49.2924 69.2051 49.6456 68.9408 50.0603 68.7539C50.475 68.5625 50.9398 68.4668 51.4548 68.4668C51.9743 68.4668 52.4415 68.5625 52.8562 68.7539C53.2754 68.9408 53.6309 69.2051 53.9226 69.5469C54.2188 69.8841 54.4444 70.2829 54.5993 70.7432C54.7543 71.1989 54.8318 71.6934 54.8318 72.2266V72.3838C54.8318 72.917 54.7543 73.4115 54.5993 73.8672C54.4444 74.3229 54.2188 74.7217 53.9226 75.0635C53.6309 75.4007 53.2777 75.665 52.863 75.8564C52.4529 76.0433 51.988 76.1367 51.4685 76.1367C50.9489 76.1367 50.4818 76.0433 50.0671 75.8564C49.6524 75.665 49.2969 75.4007 49.0007 75.0635C48.709 74.7217 48.4857 74.3229 48.3308 73.8672C48.1758 73.4115 48.0984 72.917 48.0984 72.3838ZM49.363 72.2266V72.3838C49.363 72.7529 49.4063 73.1016 49.4929 73.4297C49.5795 73.7533 49.7094 74.0404 49.8825 74.291C50.0603 74.5417 50.2813 74.7399 50.5456 74.8857C50.8099 75.027 51.1176 75.0977 51.4685 75.0977C51.8148 75.0977 52.1179 75.027 52.3777 74.8857C52.642 74.7399 52.8607 74.5417 53.0339 74.291C53.2071 74.0404 53.337 73.7533 53.4236 73.4297C53.5147 73.1016 53.5603 72.7529 53.5603 72.3838V72.2266C53.5603 71.862 53.5147 71.5179 53.4236 71.1943C53.337 70.8662 53.2048 70.5768 53.0271 70.3262C52.8539 70.071 52.6351 69.8704 52.3708 69.7246C52.1111 69.5788 51.8057 69.5059 51.4548 69.5059C51.1085 69.5059 50.8031 69.5788 50.5388 69.7246C50.279 69.8704 50.0603 70.071 49.8825 70.3262C49.7094 70.5768 49.5795 70.8662 49.4929 71.1943C49.4063 71.5179 49.363 71.862 49.363 72.2266ZM61.435 70.1826V76H60.1704V68.6035H61.3666L61.435 70.1826ZM61.1342 72.0215L60.6079 72.001C60.6124 71.4951 60.6876 71.028 60.8334 70.5996C60.9793 70.1667 61.1843 69.7907 61.4487 69.4717C61.713 69.1527 62.0274 68.9066 62.392 68.7334C62.7612 68.5557 63.169 68.4668 63.6157 68.4668C63.9802 68.4668 64.3084 68.5169 64.6 68.6172C64.8917 68.7129 65.1401 68.8678 65.3452 69.082C65.5548 69.2962 65.7143 69.5742 65.8237 69.916C65.933 70.2533 65.9877 70.6657 65.9877 71.1533V76H64.7162V71.1396C64.7162 70.7523 64.6593 70.4424 64.5454 70.21C64.4314 69.973 64.2651 69.8021 64.0463 69.6973C63.8276 69.5879 63.5587 69.5332 63.2397 69.5332C62.9252 69.5332 62.6381 69.5993 62.3784 69.7314C62.1232 69.8636 61.9021 70.0459 61.7153 70.2783C61.533 70.5107 61.3894 70.7773 61.2846 71.0781C61.1843 71.3743 61.1342 71.6888 61.1342 72.0215ZM69.3133 65.5V76H68.0486V65.5H69.3133ZM69.0125 72.0215L68.4861 72.001C68.4907 71.4951 68.5659 71.028 68.7117 70.5996C68.8576 70.1667 69.0626 69.7907 69.327 69.4717C69.5913 69.1527 69.9057 68.9066 70.2703 68.7334C70.6395 68.5557 71.0473 68.4668 71.4939 68.4668C71.8585 68.4668 72.1867 68.5169 72.4783 68.6172C72.77 68.7129 73.0184 68.8678 73.2234 69.082C73.4331 69.2962 73.5926 69.5742 73.702 69.916C73.8113 70.2533 73.866 70.6657 73.866 71.1533V76H72.5945V71.1396C72.5945 70.7523 72.5376 70.4424 72.4236 70.21C72.3097 69.973 72.1434 69.8021 71.9246 69.6973C71.7059 69.5879 71.437 69.5332 71.118 69.5332C70.8035 69.5332 70.5164 69.5993 70.2566 69.7314C70.0014 69.8636 69.7804 70.0459 69.5936 70.2783C69.4113 70.5107 69.2677 70.7773 69.1629 71.0781C69.0626 71.3743 69.0125 71.6888 69.0125 72.0215ZM80.2609 74.7354V70.9277C80.2609 70.6361 80.2017 70.3831 80.0832 70.1689C79.9692 69.9502 79.7961 69.7816 79.5636 69.6631C79.3312 69.5446 79.0441 69.4854 78.7023 69.4854C78.3833 69.4854 78.103 69.54 77.8615 69.6494C77.6245 69.7588 77.4377 69.9023 77.3009 70.0801C77.1688 70.2578 77.1027 70.4492 77.1027 70.6543H75.838C75.838 70.39 75.9064 70.1279 76.0431 69.8682C76.1798 69.6084 76.3758 69.3737 76.631 69.1641C76.8908 68.9499 77.2007 68.7812 77.5607 68.6582C77.9253 68.5306 78.3309 68.4668 78.7775 68.4668C79.3153 68.4668 79.7892 68.5579 80.1994 68.7402C80.6141 68.9225 80.9377 69.1982 81.1701 69.5674C81.4071 69.932 81.5255 70.39 81.5255 70.9414V74.3867C81.5255 74.6328 81.5461 74.8949 81.5871 75.1729C81.6326 75.4508 81.6987 75.6901 81.7853 75.8906V76H80.466C80.4022 75.8542 80.352 75.6605 80.3156 75.4189C80.2791 75.1729 80.2609 74.945 80.2609 74.7354ZM80.4796 71.5156L80.4933 72.4043H79.215C78.855 72.4043 78.5337 72.4339 78.2511 72.4932C77.9686 72.5479 77.7316 72.6322 77.5402 72.7461C77.3488 72.86 77.203 73.0036 77.1027 73.1768C77.0024 73.3454 76.9523 73.5436 76.9523 73.7715C76.9523 74.0039 77.0047 74.2158 77.1095 74.4072C77.2143 74.5986 77.3716 74.7513 77.5812 74.8652C77.7954 74.9746 78.0574 75.0293 78.3673 75.0293C78.7547 75.0293 79.0965 74.9473 79.3927 74.7832C79.689 74.6191 79.9237 74.4186 80.0968 74.1816C80.2746 73.9447 80.3703 73.7145 80.3839 73.4912L80.924 74.0996C80.8921 74.291 80.8055 74.5029 80.6642 74.7354C80.5229 74.9678 80.3338 75.1911 80.0968 75.4053C79.8644 75.6149 79.5864 75.7904 79.2629 75.9316C78.9438 76.0684 78.5838 76.1367 78.1828 76.1367C77.6815 76.1367 77.2417 76.0387 76.8634 75.8428C76.4897 75.6468 76.1981 75.3848 75.9884 75.0566C75.7834 74.724 75.6808 74.3525 75.6808 73.9424C75.6808 73.5459 75.7583 73.1973 75.9132 72.8965C76.0682 72.5911 76.2915 72.3382 76.5832 72.1377C76.8748 71.9326 77.2257 71.7777 77.6359 71.6729C78.0461 71.568 78.5041 71.5156 79.0099 71.5156H80.4796ZM78.3127 65.5L79.632 67.5098H78.5451L76.7814 65.5H78.3127ZM90.2274 75.0977C90.5282 75.0977 90.8062 75.0361 91.0614 74.9131C91.3166 74.79 91.5262 74.6214 91.6903 74.4072C91.8544 74.1885 91.9478 73.9401 91.9706 73.6621H93.1737C93.1509 74.0996 93.0028 74.5075 92.7294 74.8857C92.4605 75.2594 92.1073 75.5625 91.6698 75.7949C91.2323 76.0228 90.7515 76.1367 90.2274 76.1367C89.6714 76.1367 89.1861 76.0387 88.7714 75.8428C88.3612 75.6468 88.0194 75.3779 87.746 75.0361C87.4771 74.6943 87.2743 74.3024 87.1376 73.8604C87.0054 73.4137 86.9393 72.9421 86.9393 72.4453V72.1582C86.9393 71.6615 87.0054 71.1921 87.1376 70.75C87.2743 70.3034 87.4771 69.9092 87.746 69.5674C88.0194 69.2256 88.3612 68.9567 88.7714 68.7607C89.1861 68.5648 89.6714 68.4668 90.2274 68.4668C90.8062 68.4668 91.3121 68.5853 91.745 68.8223C92.1779 69.0547 92.5175 69.3737 92.7636 69.7793C93.0142 70.1803 93.1509 70.6361 93.1737 71.1465H91.9706C91.9478 70.8411 91.8612 70.5654 91.7108 70.3193C91.565 70.0732 91.3645 69.8773 91.1093 69.7314C90.8586 69.5811 90.5647 69.5059 90.2274 69.5059C89.8401 69.5059 89.5142 69.5833 89.2499 69.7383C88.9901 69.8887 88.7828 70.0938 88.6278 70.3535C88.4774 70.6087 88.368 70.8936 88.2997 71.208C88.2359 71.5179 88.204 71.8346 88.204 72.1582V72.4453C88.204 72.7689 88.2359 73.0879 88.2997 73.4023C88.3635 73.7168 88.4706 74.0016 88.621 74.2568C88.7759 74.512 88.9833 74.7171 89.243 74.8721C89.5074 75.0225 89.8355 75.0977 90.2274 75.0977ZM99.261 74.291V68.6035H100.532V76H99.3225L99.261 74.291ZM99.5002 72.7324L100.027 72.7188C100.027 73.2109 99.9742 73.6667 99.8694 74.0859C99.7691 74.5007 99.6051 74.8607 99.3772 75.166C99.1493 75.4714 98.8508 75.7106 98.4817 75.8838C98.1125 76.0524 97.6636 76.1367 97.135 76.1367C96.775 76.1367 96.4446 76.0843 96.1438 75.9795C95.8476 75.8747 95.5924 75.7129 95.3782 75.4941C95.164 75.2754 94.9976 74.9906 94.8791 74.6396C94.7652 74.2887 94.7082 73.8672 94.7082 73.375V68.6035H95.9729V73.3887C95.9729 73.7214 96.0093 73.9971 96.0823 74.2158C96.1597 74.43 96.2623 74.6009 96.3899 74.7285C96.522 74.8516 96.6679 74.9382 96.8274 74.9883C96.9914 75.0384 97.1601 75.0635 97.3332 75.0635C97.871 75.0635 98.2971 74.9609 98.6116 74.7559C98.926 74.5462 99.1516 74.266 99.2883 73.915C99.4296 73.5596 99.5002 73.1654 99.5002 72.7324ZM103.865 70.1826V76H102.6V68.6035H103.796L103.865 70.1826ZM103.564 72.0215L103.038 72.001C103.042 71.4951 103.117 71.028 103.263 70.5996C103.409 70.1667 103.614 69.7907 103.879 69.4717C104.143 69.1527 104.457 68.9066 104.822 68.7334C105.191 68.5557 105.599 68.4668 106.046 68.4668C106.41 68.4668 106.738 68.5169 107.03 68.6172C107.322 68.7129 107.57 68.8678 107.775 69.082C107.985 69.2962 108.144 69.5742 108.254 69.916C108.363 70.2533 108.418 70.6657 108.418 71.1533V76H107.146V71.1396C107.146 70.7523 107.089 70.4424 106.975 70.21C106.861 69.973 106.695 69.8021 106.476 69.6973C106.257 69.5879 105.989 69.5332 105.67 69.5332C105.355 69.5332 105.068 69.5993 104.808 69.7314C104.553 69.8636 104.332 70.0459 104.145 70.2783C103.963 70.5107 103.819 70.7773 103.714 71.0781C103.614 71.3743 103.564 71.6888 103.564 72.0215ZM115.27 68.6035H116.419V75.8428C116.419 76.4945 116.287 77.0505 116.022 77.5107C115.758 77.971 115.389 78.3197 114.915 78.5566C114.446 78.7982 113.903 78.9189 113.288 78.9189C113.033 78.9189 112.732 78.8779 112.386 78.7959C112.044 78.7184 111.707 78.584 111.374 78.3926C111.046 78.2057 110.77 77.9528 110.547 77.6338L111.21 76.8818C111.52 77.2555 111.843 77.5153 112.181 77.6611C112.522 77.807 112.86 77.8799 113.192 77.8799C113.593 77.8799 113.94 77.8047 114.231 77.6543C114.523 77.5039 114.749 77.2806 114.908 76.9844C115.072 76.6927 115.154 76.3327 115.154 75.9043V70.2305L115.27 68.6035ZM110.178 72.3838V72.2402C110.178 71.6751 110.244 71.1624 110.376 70.7021C110.513 70.2373 110.706 69.8385 110.957 69.5059C111.212 69.1732 111.52 68.918 111.88 68.7402C112.24 68.5579 112.645 68.4668 113.097 68.4668C113.561 68.4668 113.967 68.5488 114.313 68.7129C114.664 68.8724 114.961 69.1071 115.202 69.417C115.448 69.7223 115.642 70.0915 115.783 70.5244C115.924 70.9574 116.022 71.4473 116.077 71.9941V72.623C116.027 73.1654 115.929 73.653 115.783 74.0859C115.642 74.5189 115.448 74.888 115.202 75.1934C114.961 75.4987 114.664 75.7334 114.313 75.8975C113.963 76.057 113.552 76.1367 113.083 76.1367C112.641 76.1367 112.24 76.0433 111.88 75.8564C111.524 75.6696 111.219 75.4076 110.964 75.0703C110.709 74.7331 110.513 74.3366 110.376 73.8809C110.244 73.4206 110.178 72.9215 110.178 72.3838ZM111.442 72.2402V72.3838C111.442 72.7529 111.479 73.0993 111.552 73.4229C111.629 73.7464 111.745 74.0312 111.9 74.2773C112.06 74.5234 112.263 74.7171 112.509 74.8584C112.755 74.9951 113.049 75.0635 113.391 75.0635C113.81 75.0635 114.156 74.9746 114.43 74.7969C114.703 74.6191 114.92 74.3844 115.079 74.0928C115.243 73.8011 115.371 73.4844 115.462 73.1426V71.4951C115.412 71.2445 115.334 71.0029 115.229 70.7705C115.129 70.5335 114.997 70.3239 114.833 70.1416C114.673 69.9548 114.475 69.8066 114.238 69.6973C114.001 69.5879 113.723 69.5332 113.404 69.5332C113.058 69.5332 112.759 69.6061 112.509 69.752C112.263 69.8932 112.06 70.0892 111.9 70.3398C111.745 70.5859 111.629 70.873 111.552 71.2012C111.479 71.5247 111.442 71.8711 111.442 72.2402ZM125.052 75.0977C125.353 75.0977 125.631 75.0361 125.886 74.9131C126.142 74.79 126.351 74.6214 126.515 74.4072C126.679 74.1885 126.773 73.9401 126.796 73.6621H127.999C127.976 74.0996 127.828 74.5075 127.554 74.8857C127.285 75.2594 126.932 75.5625 126.495 75.7949C126.057 76.0228 125.577 76.1367 125.052 76.1367C124.496 76.1367 124.011 76.0387 123.596 75.8428C123.186 75.6468 122.844 75.3779 122.571 75.0361C122.302 74.6943 122.099 74.3024 121.963 73.8604C121.83 73.4137 121.764 72.9421 121.764 72.4453V72.1582C121.764 71.6615 121.83 71.1921 121.963 70.75C122.099 70.3034 122.302 69.9092 122.571 69.5674C122.844 69.2256 123.186 68.9567 123.596 68.7607C124.011 68.5648 124.496 68.4668 125.052 68.4668C125.631 68.4668 126.137 68.5853 126.57 68.8223C127.003 69.0547 127.342 69.3737 127.589 69.7793C127.839 70.1803 127.976 70.6361 127.999 71.1465H126.796C126.773 70.8411 126.686 70.5654 126.536 70.3193C126.39 70.0732 126.189 69.8773 125.934 69.7314C125.684 69.5811 125.39 69.5059 125.052 69.5059C124.665 69.5059 124.339 69.5833 124.075 69.7383C123.815 69.8887 123.608 70.0938 123.453 70.3535C123.302 70.6087 123.193 70.8936 123.125 71.208C123.061 71.5179 123.029 71.8346 123.029 72.1582V72.4453C123.029 72.7689 123.061 73.0879 123.125 73.4023C123.188 73.7168 123.296 74.0016 123.446 74.2568C123.601 74.512 123.808 74.7171 124.068 74.8721C124.332 75.0225 124.66 75.0977 125.052 75.0977ZM133.922 74.7354V70.9277C133.922 70.6361 133.863 70.3831 133.744 70.1689C133.63 69.9502 133.457 69.7816 133.225 69.6631C132.992 69.5446 132.705 69.4854 132.363 69.4854C132.044 69.4854 131.764 69.54 131.522 69.6494C131.286 69.7588 131.099 69.9023 130.962 70.0801C130.83 70.2578 130.764 70.4492 130.764 70.6543H129.499C129.499 70.39 129.567 70.1279 129.704 69.8682C129.841 69.6084 130.037 69.3737 130.292 69.1641C130.552 68.9499 130.862 68.7812 131.222 68.6582C131.586 68.5306 131.992 68.4668 132.439 68.4668C132.976 68.4668 133.45 68.5579 133.86 68.7402C134.275 68.9225 134.599 69.1982 134.831 69.5674C135.068 69.932 135.187 70.39 135.187 70.9414V74.3867C135.187 74.6328 135.207 74.8949 135.248 75.1729C135.294 75.4508 135.36 75.6901 135.446 75.8906V76H134.127C134.063 75.8542 134.013 75.6605 133.977 75.4189C133.94 75.1729 133.922 74.945 133.922 74.7354ZM134.141 71.5156L134.154 72.4043H132.876C132.516 72.4043 132.195 72.4339 131.912 72.4932C131.63 72.5479 131.393 72.6322 131.201 72.7461C131.01 72.86 130.864 73.0036 130.764 73.1768C130.663 73.3454 130.613 73.5436 130.613 73.7715C130.613 74.0039 130.666 74.2158 130.771 74.4072C130.875 74.5986 131.033 74.7513 131.242 74.8652C131.456 74.9746 131.718 75.0293 132.028 75.0293C132.416 75.0293 132.758 74.9473 133.054 74.7832C133.35 74.6191 133.585 74.4186 133.758 74.1816C133.936 73.9447 134.031 73.7145 134.045 73.4912L134.585 74.0996C134.553 74.291 134.467 74.5029 134.325 74.7354C134.184 74.9678 133.995 75.1911 133.758 75.4053C133.525 75.6149 133.247 75.7904 132.924 75.9316C132.605 76.0684 132.245 76.1367 131.844 76.1367C131.342 76.1367 130.903 76.0387 130.524 75.8428C130.151 75.6468 129.859 75.3848 129.649 75.0566C129.444 74.724 129.342 74.3525 129.342 73.9424C129.342 73.5459 129.419 73.1973 129.574 72.8965C129.729 72.5911 129.953 72.3382 130.244 72.1377C130.536 71.9326 130.887 71.7777 131.297 71.6729C131.707 71.568 132.165 71.5156 132.671 71.5156H134.141ZM130.066 67.5098L132.056 65.7188H133.095L135.084 67.5098H133.737L132.575 66.4297L131.413 67.5098H130.066ZM134.578 66.2998L135.542 64.5361H136.909L135.535 66.2998H134.578ZM138.58 70.0254V78.8438H137.309V68.6035H138.471L138.58 70.0254ZM143.564 72.2402V72.3838C143.564 72.9215 143.5 73.4206 143.372 73.8809C143.245 74.3366 143.058 74.7331 142.812 75.0703C142.57 75.4076 142.272 75.6696 141.916 75.8564C141.561 76.0433 141.153 76.1367 140.693 76.1367C140.223 76.1367 139.809 76.0592 139.449 75.9043C139.089 75.7493 138.783 75.5238 138.533 75.2275C138.282 74.9313 138.081 74.5758 137.931 74.1611C137.785 73.7464 137.685 73.2793 137.63 72.7598V71.9941C137.685 71.4473 137.787 70.9574 137.938 70.5244C138.088 70.0915 138.287 69.7223 138.533 69.417C138.783 69.1071 139.086 68.8724 139.442 68.7129C139.797 68.5488 140.207 68.4668 140.672 68.4668C141.137 68.4668 141.55 68.5579 141.91 68.7402C142.27 68.918 142.573 69.1732 142.819 69.5059C143.065 69.8385 143.249 70.2373 143.372 70.7021C143.5 71.1624 143.564 71.6751 143.564 72.2402ZM142.292 72.3838V72.2402C142.292 71.8711 142.254 71.5247 142.176 71.2012C142.099 70.873 141.978 70.5859 141.814 70.3398C141.654 70.0892 141.449 69.8932 141.199 69.752C140.948 69.6061 140.649 69.5332 140.303 69.5332C139.984 69.5332 139.706 69.5879 139.469 69.6973C139.237 69.8066 139.038 69.9548 138.874 70.1416C138.71 70.3239 138.576 70.5335 138.471 70.7705C138.371 71.0029 138.296 71.2445 138.246 71.4951V73.2656C138.337 73.5846 138.464 73.8854 138.628 74.168C138.792 74.446 139.011 74.6715 139.285 74.8447C139.558 75.0133 139.902 75.0977 140.317 75.0977C140.659 75.0977 140.953 75.027 141.199 74.8857C141.449 74.7399 141.654 74.5417 141.814 74.291C141.978 74.0404 142.099 73.7533 142.176 73.4297C142.254 73.1016 142.292 72.7529 142.292 72.3838Z" fill="#333333"/>
<path d="M12 44C12 41.2386 14.2386 39 17 39H197C199.761 39 202 41.2386 202 44C202 43.4477 200.657 43 199 43H15C13.3431 43 12 43.4477 12 44ZM202 101H12H202ZM12 101V41V101ZM202 41V101V41Z" fill="#DEF8E2" mask="url(#path-5-inside-1_902_11960)"/>
</g>
<defs>
<filter id="filter0_ddd_902_11960" x="0" y="33" width="214" height="84" filterUnits="userSpaceOnUse" color-interpolation-filters="sRGB">
<feFlood flood-opacity="0" result="BackgroundImageFix"/>
<feColorMatrix in="SourceAlpha" type="matrix" values="0 0 0 0 0 0 0 0 0 0 0 0 0 0 0 0 0 0 127 0" result="hardAlpha"/>
<feOffset dy="1"/>
<feGaussianBlur stdDeviation="1.5"/>
<feComposite in2="hardAlpha" operator="out"/>
<feColorMatrix type="matrix" values="0 0 0 0 0 0 0 0 0 0 0 0 0 0 0 0 0 0 0.15 0"/>
<feBlend mode="normal" in2="BackgroundImageFix" result="effect1_dropShadow_902_11960"/>
<feColorMatrix in="SourceAlpha" type="matrix" values="0 0 0 0 0 0 0 0 0 0 0 0 0 0 0 0 0 0 127 0" result="hardAlpha"/>
<feOffset dy="2"/>
<feGaussianBlur stdDeviation="3"/>
<feComposite in2="hardAlpha" operator="out"/>
<feColorMatrix type="matrix" values="0 0 0 0 0 0 0 0 0 0 0 0 0 0 0 0 0 0 0.05 0"/>
<feBlend mode="normal" in2="effect1_dropShadow_902_11960" result="effect2_dropShadow_902_11960"/>
<feColorMatrix in="SourceAlpha" type="matrix" values="0 0 0 0 0 0 0 0 0 0 0 0 0 0 0 0 0 0 127 0" result="hardAlpha"/>
<feOffset dy="4"/>
<feGaussianBlur stdDeviation="6"/>
<feComposite in2="hardAlpha" operator="out"/>
<feColorMatrix type="matrix" values="0 0 0 0 0 0 0 0 0 0 0 0 0 0 0 0 0 0 0.08 0"/>
<feBlend mode="normal" in2="effect2_dropShadow_902_11960" result="effect3_dropShadow_902_11960"/>
<feBlend mode="normal" in="SourceGraphic" in2="effect3_dropShadow_902_11960" result="shape"/>
</filter>
</defs>
</svg>
