<svg width="13" height="14" viewBox="0 0 13 14" fill="none" xmlns="http://www.w3.org/2000/svg">
<path fill-rule="evenodd" clip-rule="evenodd" d="M6.50001 1.5C4.64202 1.5 2.99851 2.42125 2.00244 3.83333H3.16668C3.44282 3.83333 3.66668 4.05719 3.66668 4.33333C3.66668 4.60948 3.44282 4.83333 3.16668 4.83333H1.12369C0.904888 4.83333 0.7115 4.69107 0.646362 4.48218L0.0226818 2.48218C-0.059526 2.21856 0.0875392 1.93821 0.351161 1.856C0.614783 1.7738 0.895133 1.92086 0.977341 2.18448L1.27368 3.13479C2.45743 1.53683 4.35732 0.5 6.50001 0.5C9.05288 0.5 11.2611 1.97177 12.3241 4.11082C12.447 4.35811 12.3461 4.6582 12.0988 4.78109C11.8516 4.90398 11.5515 4.80314 11.4286 4.55585C10.528 2.74365 8.65878 1.5 6.50001 1.5ZM0.901175 9.21891C1.14846 9.09602 1.44856 9.19686 1.57145 9.44415C2.47204 11.2564 4.34125 12.5 6.50001 12.5C8.35801 12.5 10.0015 11.5788 10.9976 10.1667H9.83335C9.5572 10.1667 9.33335 9.94281 9.33335 9.66667C9.33335 9.39052 9.5572 9.16667 9.83335 9.16667H11.8763C12.0951 9.16667 12.2885 9.30893 12.3537 9.51782L12.9773 11.5178C13.0595 11.7814 12.9125 12.0618 12.6489 12.144C12.3852 12.2262 12.1049 12.0791 12.0227 11.8155L11.7263 10.8652C10.5426 12.4632 8.64271 13.5 6.50001 13.5C3.94715 13.5 1.73895 12.0282 0.675934 9.88918C0.553042 9.64189 0.653885 9.3418 0.901175 9.21891Z" fill="#138300"/>
</svg>
